<?xml version="1.0" encoding="utf-8"?>
<!-- Generator: Adobe Illustrator 18.0.0, SVG Export Plug-In . SVG Version: 6.00 Build 0)  -->
<!DOCTYPE svg PUBLIC "-//W3C//DTD SVG 1.1//EN" "http://www.w3.org/Graphics/SVG/1.1/DTD/svg11.dtd">
<svg version="1.1" id="Layer_1" xmlns="http://www.w3.org/2000/svg" xmlns:xlink="http://www.w3.org/1999/xlink" x="0px" y="0px"
	 viewBox="0 0 109.8 100" enable-background="new 0 0 109.8 100" xml:space="preserve">
<g>
	<g id="XMLID_1_">
		<path d="M5.7,75.2c5.1,11.4,25.5,20.3,49.2,20.3s44.1-8.8,49.2-20.3c-0.1,0.1-0.3,0.2-0.4,0.4c-1,1.1-2.1,2.2-3.4,3.2c0,0,0,0,0,0
			c-1.2,1-2.6,1.9-4.1,2.9c-0.3,0.2-0.7,0.4-1,0.6c-1.5,0.9-3,1.7-4.7,2.5c-0.2,0.1-0.5,0.2-0.8,0.4c-1.5,0.7-3.1,1.3-4.7,1.9
			c-0.4,0.1-0.8,0.3-1.2,0.4c-1.8,0.6-3.8,1.2-5.7,1.7c-0.4,0.1-0.9,0.2-1.3,0.3c-1.8,0.4-3.7,0.8-5.6,1.1c-0.3,0.1-0.6,0.1-1,0.2
			c-2.2,0.3-4.4,0.6-6.6,0.8c-0.5,0-1,0.1-1.5,0.1c-2.3,0.2-4.7,0.3-7.1,0.3s-4.8-0.1-7.1-0.3c-0.5,0-1-0.1-1.5-0.1
			c-2.2-0.2-4.5-0.4-6.6-0.8c-0.3-0.1-0.6-0.1-0.9-0.2c-1.9-0.3-3.8-0.7-5.7-1.2c-0.4-0.1-0.8-0.2-1.3-0.3c-2-0.5-3.9-1.1-5.8-1.7
			c-0.4-0.1-0.8-0.3-1.1-0.4c-1.7-0.6-3.3-1.2-4.8-1.9c-0.2-0.1-0.5-0.2-0.7-0.3c-1.7-0.8-3.2-1.6-4.7-2.5c-0.3-0.2-0.7-0.4-1-0.6
			c-2.9-1.8-5.5-3.9-7.5-6.1C6,75.5,5.8,75.4,5.7,75.2z M5,65.1c2.4,8.8,13.2,16,27.9,19.7c6.7,1.7,14.1,2.6,21.9,2.6
			c25,0,46.4-9.6,49.9-22.3c0.2-0.7,0.3-1.3,0.4-1.9c-0.1,0.1-0.2,0.2-0.3,0.4c-1,1.2-2,2.3-3.2,3.4c-0.1,0.1-0.3,0.2-0.5,0.4
			c-1.2,1-2.5,2-3.9,2.9c-0.2,0.1-0.4,0.3-0.6,0.4c-1.5,1-3.1,1.8-4.7,2.7c-0.3,0.2-0.7,0.3-1,0.5c-1.7,0.8-3.5,1.6-5.4,2.3
			c-0.3,0.1-0.6,0.2-0.9,0.3c-1.9,0.7-3.8,1.3-5.8,1.8c-0.2,0.1-0.3,0.1-0.5,0.2c-2.1,0.5-4.3,1-6.5,1.4c-0.4,0.1-0.9,0.1-1.3,0.2
			c-2.2,0.4-4.5,0.6-6.8,0.8c-0.4,0-0.8,0.1-1.2,0.1c-2.5,0.2-4.9,0.3-7.5,0.3s-5-0.1-7.5-0.3c-0.4,0-0.8-0.1-1.2-0.1
			c-2.3-0.2-4.6-0.5-6.8-0.8c-0.4-0.1-0.9-0.1-1.3-0.2c-2.2-0.4-4.4-0.8-6.5-1.4c-0.2-0.1-0.4-0.1-0.5-0.2c-2-0.5-3.9-1.1-5.8-1.8
			c-0.3-0.1-0.6-0.2-0.9-0.3c-1.9-0.7-3.7-1.4-5.4-2.2c-0.4-0.2-0.7-0.3-1-0.5c-1.7-0.8-3.3-1.7-4.7-2.7c-0.2-0.1-0.4-0.3-0.6-0.4
			c-1.4-0.9-2.7-1.9-3.9-3c-0.1-0.1-0.3-0.2-0.4-0.3C7,65.9,5.9,64.8,5,63.6c-0.1-0.1-0.2-0.2-0.3-0.3C4.7,63.8,4.8,64.4,5,65.1z
			 M9.4,40.4c5,5.3,13.4,9.5,23.7,11.9c6.4,1.5,13.6,2.4,21,2.4c24.8,0,46.5-9.8,49.3-22.3c0.2-1,0.3-1.9,0.3-2.8
			c0-13.6-22.8-25.1-49.7-25.1S4.5,16,4.5,29.6c0,1.4,0.3,2.9,0.8,4.5C6.2,36.3,7.6,38.4,9.4,40.4z M5.4,55.5
			C8.7,64.7,21.3,72,37.6,75.1c5.4,1,11.3,1.6,17.3,1.6c24.2,0,45.1-8.9,49.5-21.2c0.4-1,0.6-2.1,0.8-3.1c-0.1,0.1-0.2,0.2-0.3,0.4
			c-1,1.2-2,2.3-3.3,3.4c-0.1,0.1-0.2,0.2-0.4,0.3c-1.2,1.1-2.5,2.1-4,3c-0.2,0.1-0.4,0.3-0.6,0.4c-1.5,1-3.1,1.8-4.8,2.7
			c-0.3,0.2-0.7,0.3-1,0.5c-1.7,0.8-3.5,1.6-5.4,2.3c-0.3,0.1-0.6,0.2-0.9,0.3c-1.9,0.7-3.8,1.3-5.8,1.8c-0.2,0-0.4,0.1-0.5,0.2
			c-2.1,0.5-4.3,1-6.6,1.4c-0.4,0.1-0.8,0.2-1.3,0.2c-2.2,0.4-4.5,0.6-6.8,0.8c-0.4,0-0.8,0.1-1.2,0.1c-2.4,0.2-4.9,0.3-7.5,0.3
			c-2.5,0-5-0.1-7.5-0.3c-0.4,0-0.8,0-1.2-0.1c-2.3-0.2-4.6-0.5-6.8-0.8c-0.4-0.1-0.9-0.2-1.3-0.2c-2.2-0.4-4.4-0.8-6.5-1.4
			c-0.2,0-0.4-0.1-0.5-0.2c-2-0.5-4-1.1-5.9-1.8c-0.3-0.1-0.6-0.2-0.9-0.3c-1.9-0.7-3.7-1.5-5.4-2.3c-0.3-0.2-0.7-0.3-1-0.5
			c-1.7-0.8-3.3-1.7-4.7-2.7c-0.2-0.1-0.4-0.3-0.6-0.4c-1.4-1-2.7-1.9-3.9-3c-0.1-0.1-0.3-0.2-0.4-0.3C7,55.1,5.9,54,4.9,52.8
			c-0.1-0.1-0.2-0.2-0.3-0.4C4.7,53.5,5,54.5,5.4,55.5L5.4,55.5z M5.4,44.8C8.7,54,21.3,61.3,37.6,64.3c5.4,1,11.3,1.6,17.3,1.6
			c24.2,0,45.1-8.9,49.5-21.2c0.6-1.5,0.9-3.1,0.9-4.6c0-0.2,0-0.4,0-0.6c-0.1,0.1-0.2,0.3-0.3,0.4c-0.9,1.3-1.9,2.5-3,3.8
			c0,0-0.1,0-0.1,0.1c-1.2,1.2-2.5,2.3-4,3.4c-0.2,0.2-0.5,0.4-0.7,0.5c-1.5,1-3,2-4.7,2.9c-0.3,0.2-0.7,0.3-1,0.5
			c-1.8,0.9-3.6,1.8-5.5,2.5c-0.2,0.1-0.5,0.2-0.7,0.3c-1.9,0.7-3.9,1.4-6,2c-0.2,0.1-0.5,0.2-0.7,0.2c-2.2,0.6-4.4,1.1-6.8,1.5
			c-0.4,0.1-0.9,0.2-1.3,0.2c-2.3,0.4-4.7,0.7-7.1,0.9c-0.4,0-0.8,0.1-1.2,0.1c-2.6,0.2-5.2,0.3-7.8,0.3c-2.5,0-5-0.1-7.4-0.3
			c-0.4,0-0.8-0.1-1.2-0.1c-2.3-0.2-4.5-0.5-6.7-0.8c-0.4-0.1-0.8-0.1-1.3-0.2c-2.2-0.4-4.4-0.8-6.5-1.3c-0.2,0-0.3-0.1-0.5-0.1
			c-2-0.5-3.9-1.1-5.8-1.8c-0.3-0.1-0.6-0.2-0.9-0.3c-1.9-0.7-3.6-1.4-5.3-2.2c-0.3-0.2-0.7-0.3-1-0.5C16,50.8,14.4,50,13,49
			c-0.2-0.1-0.3-0.2-0.5-0.4c-1.4-0.9-2.7-1.9-3.8-2.9c-0.1-0.1-0.3-0.3-0.5-0.4c-1.2-1.1-2.2-2.2-3.2-3.3c-0.1-0.1-0.2-0.2-0.3-0.3
			C4.7,42.7,5,43.7,5.4,44.8L5.4,44.8z M109.8,61.7c0,1.3-0.2,2.6-0.6,4c0.4,1.4,0.6,2.8,0.6,4c0,17-24.1,30.3-54.9,30.3
			C24.1,100,0,86.7,0,69.7c0-1.3,0.2-2.6,0.6-4c-0.4-1.5-0.6-2.8-0.6-4c0-1.8,0.3-3.6,0.9-5.4C0.3,54.5,0,52.7,0,50.9
			s0.3-3.6,0.9-5.4C0.3,43.7,0,41.9,0,40.1c0-1.7,0.3-3.5,0.9-5.3C0.3,33.1,0,31.3,0,29.6C0,13,23.8,0,54.2,0s54.2,13,54.2,29.6
			c0,0.9-0.2,2-0.4,3c1.1,2.5,1.8,5,1.8,7.5c0,1.8-0.3,3.6-0.9,5.4c0.6,1.8,0.9,3.6,0.9,5.4c0,1.8-0.3,3.6-0.9,5.4
			C109.5,58.1,109.8,59.9,109.8,61.7z"/>
	</g>
</g>
<path d="M26.4,26.8c-0.3,2.2,0.9,4.1,3.7,5.6c2.3,1.2,4.9,1.9,7.9,2.1c3,0.1,6.4-0.4,10.4-1.6c0.7-0.2,1.5-0.4,2.3-0.7
	c0.8-0.3,1.7-0.6,2.6-0.9l12.4,6.7c-1.6,0.8-3.2,1.4-4.9,1.9c-1.7,0.5-3.2,1-4.6,1.3c-1.2,0.3-2.6,0.5-4,0.8
	c-1.5,0.2-2.5,0.4-3.1,0.4l-0.5,0.2l5.7,3c2.4-0.5,5-1.1,7.7-2.1c2.7-0.9,5.4-2,8-3.3l10.2,5.5l3.4-1.8l-10.4-5.6
	c3.5-2.2,5.4-4.4,5.8-6.6c0.4-2.3-0.9-4.2-3.8-5.8c-2.6-1.4-5.4-2.1-8.5-2c-3.1,0-6.4,0.6-9.9,1.8c-0.6,0.2-1.3,0.4-2.2,0.7
	c-0.8,0.3-1.6,0.5-2.3,0.8l-12.3-6.6c2.8-1.2,5.3-2.1,7.5-2.5c2.3-0.5,4.6-0.8,6.9-1.1l0.4-0.2l-5.6-3c-2,0.4-4.2,1.1-6.7,1.9
	c-2.5,0.8-4.7,1.8-6.7,2.7l-7.7-4.2l-3.4,1.8l7.8,4.2C28.8,22.3,26.8,24.6,26.4,26.8z M64.8,27.9c2-0.1,3.8,0.3,5.6,1.2
	c1.9,1,2.6,2.1,2.3,3.2c-0.3,1.2-1.5,2.4-3.6,3.7l-11.8-6.4C60.3,28.6,62.8,28,64.8,27.9z M33.1,25.9c0.5-1.3,1.7-2.5,3.6-3.6
	l11.8,6.4c-3.4,1.1-6.1,1.7-8,1.8c-1.9,0.1-3.8-0.4-5.5-1.3C33.3,28.2,32.6,27.1,33.1,25.9z"/>
</svg>
