<?xml version="1.0" encoding="utf-8"?>
<!-- Generator: Adobe Illustrator 18.0.0, SVG Export Plug-In . SVG Version: 6.00 Build 0)  -->
<!DOCTYPE svg PUBLIC "-//W3C//DTD SVG 1.1//EN" "http://www.w3.org/Graphics/SVG/1.1/DTD/svg11.dtd">
<svg version="1.1" id="Layer_1" xmlns="http://www.w3.org/2000/svg" xmlns:xlink="http://www.w3.org/1999/xlink" x="0px" y="0px"
	 viewBox="0 0 106.6 100" enable-background="new 0 0 106.6 100" xml:space="preserve">
<g id="XMLID_2_">
	<path d="M35.4,15.8c-5.8,2.3-14.1,8.7-5.2,13.7c6.4,3.6,14.6,2,21.4,0.8l7.9,7.1l-4.3,0.9c-4.6,0.8-10-0.2-14.3,1.5l5.1,4.6
		c6-0.3,12-1.4,17.8-3.1l7.5,6.7l6.1-1.9l-7.6-6.8c6.1-2.5,13.6-9.1,4.7-14c-6.3-3.4-14.2-1.8-20.9-0.5l-7.8-7
		c5.3-1.3,11-0.2,16.1-2c-1.7-1.5-3.4-3-5.1-4.5c-5.1,0.4-10.3,1.3-15.2,2.7l-5.6-5.1l-6.1,1.9L35.4,15.8z M105.9,34
		c0.4,2.5,0.4,4.7,0.1,6.9l-2.3-0.2c0-0.2,0.1-0.5,0.1-0.8C84,65.7,22.6,65.7,2.9,40c0,0.3,0.1,0.5,0.1,0.8l-2.3,0.2
		c-0.3-2.1-0.2-4.4,0.1-6.9c-0.7-2.3-0.9-4.9-0.5-7.7C3,4.9,36.8,0,53.3,0s50.3,4.9,53.1,26.3C106.8,29.1,106.6,31.7,105.9,34z"/>
	<path fill="#FFFFFF" d="M39.8,26.5C39.8,26.5,39.8,26.5,39.8,26.5c0,0,0.1,0,0.1,0c0.1,0,0.1,0,0.2,0c0,0,0.1,0,0.1,0
		c0,0,0,0,0.1,0c0,0,0.1,0,0.1,0c1.5,0.1,3.6-0.1,6.3-0.5l-7.2-6.5C35,21.5,34,25.8,39.8,26.5z M74.4,25.1c8.9,4.9,1.4,11.5-4.7,14
		l7.6,6.8l-6.1,1.9l-7.5-6.7C58,42.9,52,44,46,44.3l-5.1-4.6c4.3-1.7,9.7-0.7,14.3-1.5l4.3-0.9l-7.9-7.1c-6.8,1.3-15,2.9-21.4-0.8
		c-8.8-5-0.6-11.4,5.2-13.7l-5.7-5.1l6.1-1.9l5.6,5.1c5-1.4,10.1-2.3,15.2-2.7c1.7,1.5,3.4,3,5.1,4.5c-5,1.7-10.8,0.6-16.1,2l7.8,7
		C60.2,23.4,68.1,21.7,74.4,25.1z M69.4,32.7c3.3-4.8-10.1-4-11.2-3.8l7.2,6.5c1.9-0.8,3.1-1.7,3.8-2.5c0,0-0.1,0.1-0.1,0.1
		c0,0,0.1-0.1,0.1-0.2C69.4,32.8,69.4,32.7,69.4,32.7z M69.5,32.6C69.5,32.6,69.5,32.6,69.5,32.6C69.5,32.6,69.5,32.6,69.5,32.6z"/>
	<path d="M69.5,32.6C69.5,32.6,69.5,32.6,69.5,32.6C69.5,32.6,69.5,32.6,69.5,32.6z"/>
	<path d="M69.3,32.9c-0.6,0.8-1.9,1.7-3.8,2.5l-7.2-6.5c1.1-0.2,14.5-1,11.2,3.8C69.4,32.7,69.4,32.8,69.3,32.9
		c0,0.1-0.1,0.1-0.1,0.1C69.2,33,69.3,32.9,69.3,32.9z"/>
	<path d="M39.6,19.6l7.2,6.5c-2.7,0.4-4.8,0.6-6.3,0.5c0,0-0.1,0-0.1,0c0,0,0,0-0.1,0c0,0-0.1,0-0.1,0c-0.1,0-0.1,0-0.2,0
		c0,0-0.1,0-0.1,0c0,0,0,0,0,0C34,25.8,35,21.5,39.6,19.6z"/>
	<path d="M40.3,26.5C40.3,26.5,40.3,26.5,40.3,26.5C40.3,26.5,40.3,26.5,40.3,26.5z"/>
	<path d="M39.9,26.5C39.9,26.5,39.9,26.5,39.9,26.5C39.9,26.5,39.9,26.5,39.9,26.5z"/>
	<path fill="#FFFFFF" d="M2.9,40C22.6,65.7,84,65.7,103.7,40c0,0.3-0.1,0.5-0.1,0.8c-0.1,0.8-0.3,1.5-0.4,2.2l-0.3,0.9
		c-2.4,6.5-7.7,11.2-14.2,14.4c-0.1,0-0.2,0.1-0.3,0.1c-0.6,0.3-1.2,0.5-1.8,0.8c-11.1,4.7-25,6-33.3,6c-8.4,0-22.2-1.4-33.3-6
		c-0.6-0.3-1.2-0.5-1.8-0.8c-0.1,0-0.2-0.1-0.3-0.1C11.4,55,6.1,50.3,3.7,43.8l-0.3-0.9c-0.2-0.7-0.3-1.4-0.4-2.2
		C2.9,40.5,2.9,40.2,2.9,40z"/>
	<path fill="#FFFFFF" d="M53.3,75.8c-0.6,0-1.2,0-1.8,0c-8.7-0.2-23-2.1-33.9-7.2c-6.3-3.2-11.5-7.8-13.8-14.2l-0.8-2
		c-0.2-1.2-0.2-2.4-0.1-3.7c17.6,27.5,83.3,27.5,100.9,0c0.1,1.3,0.1,2.5-0.1,3.7l-0.8,2c-2.3,6.4-7.5,11-13.8,14.2
		c-10.9,5.1-25.2,6.9-33.9,7.2C54.5,75.8,53.9,75.8,53.3,75.8z"/>
	<path fill="#FFFFFF" d="M2.9,59.3c17.6,27.5,83.3,27.5,100.9,0c0.1,1.3,0.1,2.5-0.1,3.7l-0.8,2c-2.3,6.4-7.5,11-13.8,14.2
		c-10.9,5.1-25.2,6.9-33.9,7.2c-0.6,0-1.2,0-1.8,0s-1.2,0-1.8,0c-8.7-0.2-23-2-33.9-7.2C11.2,76,6.1,71.5,3.7,65L3,63
		C2.8,61.8,2.8,60.6,2.9,59.3z"/>
	<path fill="#FFFFFF" d="M2.9,69.9c17.6,27.5,83.3,27.5,100.9,0C105.5,91.9,68,97,53.3,97C38.6,97,1.1,91.9,2.9,69.9z"/>
	<path d="M51.5,86.4c0.6,0,1.3,0,1.8,0s1.2,0,1.8,0c8.7-0.2,23-2,33.9-7.2c6.3-3.2,11.5-7.8,13.8-14.2l0.8-2l2.4,0.3
		c-0.1,0.7-0.3,1.4-0.4,2c6.3,25.9-32.7,34.7-52.3,34.7S-5.3,91.2,1,65.4c-0.2-0.7-0.3-1.3-0.4-2L3,63l0.8,2
		c2.4,6.4,7.5,11,13.8,14.2C28.4,84.3,42.8,86.2,51.5,86.4z M103.7,69.9c-17.6,27.5-83.3,27.5-100.9,0C1.1,91.9,38.6,97,53.3,97
		C68,97,105.5,91.9,103.7,69.9z"/>
	<path d="M20,59.1c11.1,4.7,25,6,33.3,6c8.4,0,22.2-1.4,33.3-6c0.6-0.3,1.2-0.5,1.8-0.8c0.1,0,0.2-0.1,0.3-0.1
		c6.5-3.2,11.8-7.9,14.2-14.4l0.3-0.9c0.2-0.7,0.3-1.5,0.4-2.2l2.3,0.2c-0.1,0.9-0.3,1.8-0.5,2.7c0.9,3.3,1,6.3,0.6,9.1l-2.4-0.3
		c0.2-1.2,0.2-2.4,0.1-3.7c-17.6,27.5-83.3,27.5-100.9,0C2.8,50,2.8,51.2,3,52.4l-2.4,0.4c-0.5-2.8-0.3-5.8,0.6-9.1
		c-0.2-0.9-0.4-1.8-0.5-2.7l2.3-0.2c0.1,0.8,0.3,1.5,0.4,2.2l0.3,0.9c2.4,6.5,7.7,11.2,14.2,14.4c0.1,0,0.2,0.1,0.3,0.1
		C18.8,58.6,19.4,58.9,20,59.1z"/>
	<path d="M103.7,59.3c-17.6,27.5-83.3,27.5-100.9,0C2.8,60.6,2.8,61.8,3,63l-2.4,0.4c-0.4-2.6-0.3-5.5,0.4-8.6
		c-0.2-0.7-0.3-1.3-0.4-2L3,52.4l0.8,2c2.4,6.4,7.5,11,13.8,14.2c10.9,5.1,25.2,6.9,33.9,7.2c0.6,0,1.3,0,1.8,0s1.2,0,1.8,0
		c8.7-0.2,23-2.1,33.9-7.2c6.3-3.2,11.5-7.8,13.8-14.2l0.8-2l2.4,0.3c-0.1,0.7-0.3,1.4-0.5,2c0.8,3.1,0.9,6,0.4,8.6l-2.4-0.3
		C103.8,61.8,103.8,60.6,103.7,59.3z"/>
</g>
</svg>
