<?xml version="1.0" encoding="utf-8"?>
<!-- Generator: Adobe Illustrator 18.0.0, SVG Export Plug-In . SVG Version: 6.00 Build 0)  -->
<!DOCTYPE svg PUBLIC "-//W3C//DTD SVG 1.1//EN" "http://www.w3.org/Graphics/SVG/1.1/DTD/svg11.dtd">
<svg version="1.1" id="Layer_1" xmlns="http://www.w3.org/2000/svg" xmlns:xlink="http://www.w3.org/1999/xlink" x="0px" y="0px"
	 viewBox="0 0 145.5 100" enable-background="new 0 0 145.5 100" xml:space="preserve">
<path d="M141.7,0H3.8C1.7,0,0,1.7,0,3.8v83c0,2.1,1.7,3.8,3.8,3.8h137.9c2.1,0,3.8-1.7,3.8-3.8v-83C145.5,1.7,143.8,0,141.7,0z
	 M141.7,88.6v-1.9H3.8v-83h137.9v83c0,0,0,0,0,0L141.7,88.6z M105.1,98.1c0,1-0.8,1.9-1.9,1.9H42.3c-1,0-1.9-0.8-1.9-1.9
	c0-1,0.8-1.9,1.9-1.9h60.9C104.2,96.2,105.1,97.1,105.1,98.1z M13.2,65.6h60.9v1.9H13.2V65.6z M13.2,54.5h60.9v1.9H13.2V54.5z
	 M13.2,21.3h60.9v1.9H13.2V21.3z M54.9,34.3l-41.8,0.1l0-1.9l41.8-0.1L54.9,34.3z M13.2,45.4l0-1.9l41.8-0.1l0,1.9L13.2,45.4z
	 M90,67.5h41.6V21.3H90V67.5z M91.9,23.2h37.9v42.4H91.9V23.2z"/>
</svg>
