<?xml version="1.0" encoding="utf-8"?>
<!-- Generator: Adobe Illustrator 18.0.0, SVG Export Plug-In . SVG Version: 6.00 Build 0)  -->
<!DOCTYPE svg PUBLIC "-//W3C//DTD SVG 1.1//EN" "http://www.w3.org/Graphics/SVG/1.1/DTD/svg11.dtd">
<svg version="1.1" id="Layer_1" xmlns="http://www.w3.org/2000/svg" xmlns:xlink="http://www.w3.org/1999/xlink" x="0px" y="0px"
	 viewBox="0 0 149.8 100" enable-background="new 0 0 149.8 100" xml:space="preserve">
<path d="M148.7,0.9L148.7,0.9C148,0.3,147.2,0,146.4,0H3.4C2.6,0,1.7,0.3,1.1,0.9l0,0C0.4,1.6,0,2.5,0,3.4v93.2
	c0,1.9,1.5,3.4,3.4,3.4h143c1.9,0,3.4-1.5,3.4-3.4V3.4C149.8,2.5,149.4,1.6,148.7,0.9z M147.7,2l1-1.1l-0.9,1.2L147.7,2z M144.2,3
	L74.9,60.2L5.6,3H144.2z M146.4,97H3.4C3.2,97,3,96.8,3,96.6v-92L74.9,64l71.9-59.4v92C146.8,96.8,146.6,97,146.4,97z"/>
</svg>
