<?xml version="1.0" encoding="utf-8"?>
<!-- Generator: Adobe Illustrator 18.0.0, SVG Export Plug-In . SVG Version: 6.00 Build 0)  -->
<!DOCTYPE svg PUBLIC "-//W3C//DTD SVG 1.1//EN" "http://www.w3.org/Graphics/SVG/1.1/DTD/svg11.dtd">
<svg version="1.1" id="Layer_1" xmlns="http://www.w3.org/2000/svg" xmlns:xlink="http://www.w3.org/1999/xlink" x="0px" y="0px"
	 viewBox="0 0 101.1 100" enable-background="new 0 0 101.1 100" xml:space="preserve">
<path d="M101.1,56.7c-0.1-1.1-0.8-2.1-1.8-2.6l-11.6-4.7l11.9-6.1c2.2-1.2,1.9-4.4-0.3-5.3l-19.5-7.8C78.3,15.1,66.8,0,50.5,0
	C34.1,0,22.7,14.8,21.3,30.2L1.9,38c-2.4,1-2.5,4.3-0.3,5.6l11.6,6L1.9,54.1c-2.4,1-2.5,4.3-0.3,5.6l11.6,6L1.9,70.2
	c-2.4,1-2.5,4.3-0.3,5.6l45.5,23.4c2.1,1.1,4.6,1.1,6.7,0l45.8-23.6c2.2-1.2,1.9-4.4-0.3-5.3l-11.6-4.7l11.9-6.1
	C100.5,58.9,101.1,57.9,101.1,56.7z M50.5,2.5c13.9,0,25.6,12.6,26.8,28.7l0,0.5c0.2,2.7,0.1,5.4,0.1,8.1c0,3-9.5,2.8-9.5,0.4l0-1.3
	h0c0-3.7,0.1-7.4-0.7-11l0.2,0.1l-0.7-2.5l-0.2-0.6l0,0c-2.3-7.1-7.9-14.2-16-14.2c-8.1,0-13.7,7-16,14.1l0,0l-0.2,0.6l-0.7,2.5
	l0.2-0.1c-0.8,3.7-0.7,7.3-0.7,11.1l0,1.3c0,2.4-9.5,2.4-9.5,0c0-2.9-0.1-5.7,0.1-8.6l0,0l0-0.4C24.9,15.1,36.7,2.5,50.5,2.5z
	 M50.4,19c-0.9,0-1.9,0.2-2.7,0.5l-10,4c5.5-13,20.3-12.9,25.7,0.1l-10.2-4.1C52.3,19.2,51.4,19,50.4,19z M2.8,41.3
	c-0.4-0.3-0.4-0.7,0.1-1L21.1,33c0,2.4-0.7,5.9,0.2,8.2c1.8,4.6,12,4.4,14,0.3h0.3v-1.3c0-4.6-0.2-9.1,1-13.5l12-4.8
	c1.1-0.5,2.4-0.5,3.6,0l12.2,4.9c1.2,4.4,1,8.9,1,13.4l0,1.3h0.3c2.1,4.2,10.8,4,13.5,0.6c1.7-2,0.7-6.7,0.7-9.1l18.3,7.4
	c0.3,0.2,0.3,0.5,0.1,0.7L52.6,64.8c-1.3,0.7-2.9,0.7-4.3,0l-32-16.5l0,0L2.8,41.3z M98.3,72.6c0.3,0.2,0.3,0.5,0.1,0.7L52.6,96.9
	c-1.3,0.7-2.9,0.7-4.3,0L2.8,73.5c-0.4-0.3-0.4-0.7,0.1-1l13.3-5.4l30.9,15.9c2.1,1.1,4.6,1.1,6.7,0l30.9-15.9L98.3,72.6z
	 M98.3,57.2L52.6,80.8c-1.3,0.7-2.9,0.7-4.3,0l-32-16.5l0,0l-13.5-7c-0.4-0.3-0.4-0.7,0.1-1L16.2,51L47.1,67c2.1,1.1,4.6,1.1,6.7,0
	L84.7,51l13.6,5.5C98.6,56.7,98.6,57,98.3,57.2z"/>
</svg>
